<?xml version="1.0" standalone="no"?>
<!DOCTYPE svg PUBLIC "-//W3C//DTD SVG 20010904//EN"
 "http://www.w3.org/TR/2001/REC-SVG-20010904/DTD/svg10.dtd">
<svg version="1.0" xmlns="http://www.w3.org/2000/svg"
 width="993.000000pt" height="1280.000000pt" viewBox="0 0 993.000000 1280.000000"
 preserveAspectRatio="xMidYMid meet">
<g transform="translate(0.000000,1280.000000) scale(0.100000,-0.100000)"
fill="#000000" stroke="none">
<path d="M4785 12663 c-386 -30 -673 -74 -1100 -168 -426 -94 -1402 -354
-1417 -377 -4 -7 -8 -257 -8 -555 0 -298 -4 -544 -8 -547 -5 -3 -53 -14 -108
-26 -288 -60 -589 -183 -859 -352 -634 -395 -1100 -1037 -1235 -1697 -49 -244
-57 -390 -31 -566 46 -306 123 -501 280 -712 50 -68 58 -86 57 -120 0 -31 8
-53 36 -96 78 -116 203 -237 247 -237 15 0 54 26 106 70 71 60 105 82 105 66
0 -2 -21 -57 -46 -123 -171 -439 -265 -841 -315 -1348 -17 -173 -14 -615 6
-820 108 -1132 595 -2159 1391 -2935 220 -214 425 -380 674 -547 104 -69 325
-200 420 -248 28 -14 50 -30 50 -35 0 -6 -115 -240 -255 -520 -140 -280 -255
-512 -255 -515 0 -3 71 -5 158 -5 l157 0 289 436 c252 381 291 435 310 431 11
-3 93 -30 182 -61 327 -113 677 -188 1059 -227 184 -19 668 -16 850 5 340 39
734 120 847 174 24 12 55 24 70 27 27 7 35 -4 290 -389 l263 -396 157 0 158 0
-225 450 c-124 247 -225 456 -225 464 0 7 15 19 33 26 74 30 390 192 497 255
756 450 1349 1078 1759 1867 176 337 321 731 407 1103 230 992 133 2040 -275
2974 -22 52 -41 96 -41 98 0 12 32 -1 66 -27 21 -16 49 -30 62 -30 48 0 212
188 256 295 10 23 14 50 11 67 -5 22 4 43 48 110 63 96 94 156 138 264 62 157
116 457 106 593 -40 570 -294 1103 -740 1553 -309 311 -735 577 -1122 698 -38
12 -80 29 -92 36 l-23 14 0 535 c0 500 -1 534 -17 539 -10 3 -103 28 -208 56
-1159 310 -1736 429 -2285 470 -122 9 -555 11 -655 3z m680 -494 c312 -26 695
-92 1175 -204 288 -67 785 -197 808 -211 l22 -14 0 -294 c0 -223 -3 -296 -12
-304 -7 -5 -98 -12 -203 -15 -211 -6 -347 -29 -517 -88 -255 -87 -505 -258
-648 -444 -37 -48 -47 -55 -77 -55 -41 0 -107 -58 -182 -159 -99 -134 -112
-189 -59 -233 18 -14 30 -30 26 -34 -4 -4 -65 0 -135 9 -71 9 -164 19 -208 22
-97 7 -135 14 -135 24 0 4 50 97 110 207 122 219 119 210 75 310 -61 137 -177
204 -356 204 -105 0 -235 -18 -247 -34 -5 -6 -59 -150 -122 -321 -156 -428
-139 -392 -197 -400 -184 -24 -347 -51 -463 -76 -74 -16 -141 -31 -149 -32
-34 -5 -15 23 55 82 71 60 75 66 70 95 -12 59 -128 210 -214 278 -32 26 -57
38 -78 38 -27 0 -47 16 -126 93 -203 201 -462 333 -762 388 -61 11 -122 23
-136 27 l-25 7 -3 358 -2 357 27 11 c16 6 147 42 293 81 1146 303 1727 382
2395 327z"/>
</g>
</svg>
